<svg xmlns="http://www.w3.org/2000/svg" xmlns:xlink="http://www.w3.org/1999/xlink" xmlns:inkscape="http://www.inkscape.org/namespaces/inkscape" version="1.1" width="841.8898" height="595.2756" viewBox="0 0 841.8898 595.2756">
<g inkscape:groupmode="layer" inkscape:label="Layer 1">
<path transform="matrix(1,0,0,-1,0,595.2756)" d="M467.5955 502.9166C507.5223 497.6929 542.1217 464.9822 544.0382 424.0137 544.8189 391.0243 531.451 379.2266 515.9245 353.1909 503.3401 331.0129 515.6631 317.8573 492.0571 295.5101 483.9851 287.8688 470.9789 283.5768 460.3275 280.838 451.7478 278.6315 438.7779 276.7751 430.1116 278.9464 425.092 281.3621 425.9914 287.384 432.536 288.5315L435.3395 288.7631C459.9624 288.9924 490.085 295.1651 497.1912 322.6414 500.309 334.6974 499.1321 341.7676 504.9805 354.2624 515.0452 374.6239 527.2778 380.5696 532.6566 406.2722 540.2404 448.5631 509.1463 487.0899 467.7041 492.7195 411.5392 500.3493 363.6731 440.1125 389.715 388.1534L390.456 386.6751C396.7671 374.4845 405.7067 363.9997 411.9075 352.5083 415.8635 345.1759 416.2952 339.5333 417.1558 331.397 418.4787 318.634 422.5901 313.2488 430.8222 304.0421 440.1734 293.5845 423.1828 285.4046 411.2161 314.0748 406.4545 326.0571 408.6734 331.1836 405.7072 340.9781 401.4309 355.0983 387.6134 367.9277 381.297 383.5942 377.8707 392.0927 375.0233 401.1143 374.5723 410.2948 373.3948 437.5086 379.6877 458.8064 398.8372 478.8615 417.4081 498.3103 441.165 505.5395 467.5955 502.9166" fill="#ffed00" fill-rule="evenodd"/>
<path transform="matrix(1,0,0,-1,0,595.2756)" d="M374.0791 419.2311C374.7801 408.5172 374.813 400.5119 377.2264 390.0362 378.8198 383.1188 375.916 380.5367 369.5947 381.0688 358.27 382.0218 343.544 381.3605 331.882 381.399 325.5214 381.42 319.193 381.5039 312.8349 381.7035 297.7019 381.9013 296.4231 376.9977 292.83 363.0824 291.1048 356.334 285.4984 334.3944 288.4241 328.7305 291.0453 323.6556 301.8064 310.5561 306.0179 304.8514 310.2324 299.1419 315.8742 292.0774 319.6363 286.3131 326.2232 273.486 301.7018 267.9934 300.6431 264.655 299.9424 257.8241 310.3832 249.2348 306.0794 242.2434 304.5504 239.76 307.0579 240.857 310.3937 240.51 314.193 240.1146 319.574 238.343 323.9878 237.6643 328.8574 236.9154 330.681 236.7235 335.3686 237.6113 340.5481 238.5921 338.4763 229.7069 321.3306 233.3392 313.3531 235.0293 308.0945 237.2063 300.1025 235.3031 293.3838 233.7032 280.4715 232.2828 273.9546 234.203 269.7806 236.1716 259.5489 234.1998 254.92 233.7216 252.6953 233.5068 249.7629 232.6507 249.7629 235.6937 250.1555 239.0457 255.3137 238.4206 258.5529 238.8614 259.6243 239.0074 268.0747 239.472 268.1663 239.521 270.6707 240.857 252.1488 255.6473 270.4595 263.8573 291.5498 273.3129 286.0744 267.7473 279.6729 292.1672 276.9066 304.1929 277.8843 310.4334 277.0787 321.9523 276.4752 330.5826 268.9634 338.9462 264.3636 346.1094 260.1405 352.9026 256.1394 359.9161 253.2728 367.4007 252.7965 368.8186 252.3557 369.8232 251.9921 371.2958 251.2851 374.1579 251.1564 375.3006 251.1564 378.2234 253.7198 387.5757 260.5635 388.3995 269.3786 389.5597 276.8703 390.3613 289.7991 389.4925 295.577 394.5515 299.8908 399.3537 292.9983 401.6064 289.3887 404.3874 281.9976 410.082 278.4444 416.0378 276.7269 425.1711 275.5828 432.3124 276.8255 438.3408 279.8552 444.822 289.8547 464.7498 318.2508 468.633 333.3263 451.5219 339.6149 444.3846 341.6292 436.2225 341.4464 426.8948 340.6955 416.736 333.6814 405.8203 324.4901 401.1528 317.7422 397.9621 317.4902 398.7921 310.8728 397.2404 304.2077 395.6777 302.6001 392.0054 312.6583 391.9734 322.6348 392.0159 332.0702 392.3861 342.1746 392.2319 344.5988 392.1951 365.3952 391.2761 365.8156 392.6361 365.8243 392.6645 364.847 399.5175 364.8234 400.0827 364.6261 404.7976 364.9847 409.2897 365.9717 413.9005 366.2612 415.1015 366.8462 416.7142 367.4854 417.5626 369.4167 420.1274 371.5189 419.2311 374.0791 419.2311ZM275.423 248.8932C277.738 245.9415 280.9125 242.6927 281.9673 239.0754 282.3797 237.6621 285.0001 237.3165 283.468 239.2435 280.9757 242.3786 283.2693 246.007 286.4897 246.9362 293.8334 249.0551 296.9507 248.0647 292.498 258.3666 290.9044 262.0542 288.0023 260.0629 284.5616 258.6288 282.4654 257.7555 272.5294 254.1784 273.761 251.2735 274.0487 250.5949 274.9575 249.4933 275.423 248.8932ZM306.4932 286.1654C304.5067 288.8756 287.8197 311.9511 287.0206 311.9698 285.1296 312.014 290.4653 283.1786 294.6005 277.9123 296.2397 275.8252 296.6142 275.9496 299.6252 276.8922 301.0476 277.3372 309.7298 281.0903 309.018 282.867 308.8502 283.2871 306.9255 285.5846 306.4932 286.1654ZM281.1461 353.4843C282.4285 358.2805 288.0193 374.7504 286.6907 378.4864 285.3462 382.2678 275.6143 379.7736 272.2241 379.2348 270.5618 378.9706 262.2285 377.9674 261.8589 376.1597 261.2098 372.983 275.2688 345.2477 278.119 346.1335 279.5562 346.5799 280.7821 352.1489 281.1461 353.4843ZM294.997 446.3841C286.1478 437.7878 284.1695 426.8628 291.9637 416.8242 300.886 406.1548 313.5645 404.0289 324.1199 413.833L325.482 415.209C341.8129 433.0607 317.95 463.8404 296.466 447.501Z" fill="#1a1a18" fill-rule="evenodd"/>
<path transform="matrix(1,0,0,-1,0,595.2756)" d="M425.9035 267.3658C428.0105 258.8998 443.554 262.0069 449.9045 262.8289 459.898 264.1229 479.0157 269.0782 487.0397 274.4972 490.6324 276.9233 493.2471 284.684 487.5778 284.4476 484.0994 284.3025 485.9053 281.3014 481.254 278.932 469.1642 272.7726 445.451 266.0023 432.1046 270.015 429.2651 270.8691 425.8525 271.4491 425.9035 267.3658" fill="#ffed00" fill-rule="evenodd"/>
<path transform="matrix(1,0,0,-1,0,595.2756)" d="M436.6528 253.3567C430.3998 253.0474 433.2759 254.607 430.1138 255.8948 425.3564 257.8323 423.625 248.8799 430.7346 246.9124 441.4615 244.6603 492.0588 253.4236 490.8532 266.2157 490.5505 269.4317 487.4428 269.8756 484.8693 267.3581 473.2109 255.9555 452.2493 254.1858 436.6528 253.3567" fill="#ffed00" fill-rule="evenodd"/>
<path transform="matrix(1,0,0,-1,0,595.2756)" d="M451.374 241.003C449.5935 242.3166 446.1114 245.4058 444.5257 241.8077 442.5443 237.3151 451.118 232.8378 455.256 232.1966 470.6507 229.8127 480.9626 248.4162 473.3592 249.7745 468.6605 250.6141 469.9925 241.0452 460.5446 239.0338 457.5127 238.3883 453.922 239.3544 451.374 241.003" fill="#ffed00" fill-rule="evenodd"/>
<path transform="matrix(1,0,0,-1,0,595.2756)" d="M28.4635 110.2122H57.8764C84.8296 110.2122 102.5847 126.2441 102.5847 150.2836 102.5847 174.3228 84.7225 190.355 57.7695 190.355H28.4635ZM45.2554 124.6136V175.9535H57.4486C74.4545 175.9535 85.2576 165.9677 85.2576 150.2836 85.2576 134.5995 74.4545 124.6136 57.4486 124.6136Z" fill="#1a1a18"/>
<path transform="matrix(1,0,0,-1,0,595.2756)" d="M169.1646 190.355H105.9741V175.9535H129.8784V110.2122H145.2597V175.9535H169.1646Z" fill="#1a1a18"/>
<path transform="matrix(1,0,0,-1,0,595.2756)" d="M336.1929 175.9535V190.355H276.4043V110.2122H336.1929V124.6136H293.1965V142.753H331.9149V157.2642H293.1965V175.9535Z" fill="#1a1a18"/>
<path transform="matrix(1,0,0,-1,0,595.2756)" d="M352.3071 110.2122H409.422V124.6136H369.0992V190.355H352.3071Z" fill="#1a1a18"/>
<path transform="matrix(1,0,0,-1,0,595.2756)" d="M480.7698 175.9535V190.355H420.9809V110.2122H480.7698V124.6136H437.773V142.753H476.4915V157.2642H437.773V175.9535Z" fill="#1a1a18"/>
<path transform="matrix(1,0,0,-1,0,595.2756)" d="M547.4098 110.2122H567.4388L534.7111 154.6809 566.1998 190.355H545.9644L513.2367 152.7021V190.355H496.9244V110.2122H513.2367V130.7517L523.3544 142.7162Z" fill="#1a1a18"/>
<path transform="matrix(1,0,0,-1,0,595.2756)" d="M810.7432 110.2122H830.7723L798.0446 154.6809 829.5333 190.355H809.2979L776.5702 152.7021V190.355H760.2579V110.2122H776.5702V130.7517L786.6879 142.7162Z" fill="#1a1a18"/>
<path transform="matrix(1,0,0,-1,0,595.2756)" d="M632.4021 190.355H569.5784V175.9535H593.3441V110.2122H608.6358V175.9535H632.4021Z" fill="#1a1a18"/>
<path transform="matrix(1,0,0,-1,0,595.2756)" d="M714.2774 110.2122 689.5148 141.7637C699.1563 145.7212 705.3469 154.406 705.3469 165.0699 705.3469 180.3506 694.995 190.355 679.8736 190.355H643.1352V110.2122H659.0684V139.4549H672.8709L695.198 110.2122ZM659.0684 175.8433H677.641C684.4405 175.8433 689.0074 171.8858 689.0074 164.74 689.0074 158.0338 684.4405 153.8563 677.641 153.8563H659.0684Z" fill="#1a1a18"/>
<path transform="matrix(1,0,0,-1,0,595.2756)" d="M723.3605 110.2122H740.1526V190.355H723.3605Z" fill="#1a1a18"/>
<path transform="matrix(1,0,0,-1,0,595.2756)" d="M202.4274 144.1032V156.4637H242.2233V144.1032Z" fill="#1a1a18"/>
</g>
</svg>
